<?xml version="1.0" encoding="UTF-8" standalone="no"?>
<!-- Created with Inkscape (http://www.inkscape.org/) -->

<svg
   width="256mm"
   height="256mm"
   viewBox="0 0 256 256"
   version="1.1"
   id="svg5"
   inkscape:version="1.1.2 (0a00cf5339, 2022-02-04)"
   sodipodi:docname="homeindexlogo.svg"
   xmlns:inkscape="http://www.inkscape.org/namespaces/inkscape"
   xmlns:sodipodi="http://sodipodi.sourceforge.net/DTD/sodipodi-0.dtd"
   xmlns="http://www.w3.org/2000/svg"
   xmlns:svg="http://www.w3.org/2000/svg"
   xmlns:rdf="http://www.w3.org/1999/02/22-rdf-syntax-ns#"
   xmlns:cc="http://creativecommons.org/ns#"
   xmlns:dc="http://purl.org/dc/elements/1.1/">
  <title
     id="title3039">Home Index Logo</title>
  <sodipodi:namedview
     id="namedview7"
     pagecolor="#505050"
     bordercolor="#ffffff"
     borderopacity="1"
     inkscape:pageshadow="0"
     inkscape:pageopacity="0"
     inkscape:pagecheckerboard="1"
     inkscape:document-units="mm"
     showgrid="false"
     inkscape:zoom="0.81196828"
     inkscape:cx="406.41982"
     inkscape:cy="257.39922"
     inkscape:window-width="1720"
     inkscape:window-height="1371"
     inkscape:window-x="1720"
     inkscape:window-y="32"
     inkscape:window-maximized="0"
     inkscape:current-layer="layer1" />
  <defs
     id="defs2">
    <inkscape:path-effect
       effect="mirror_symmetry"
       start_point="0,128"
       end_point="256,128"
       center_point="225.0243,73"
       id="path-effect2246"
       is_visible="true"
       lpeversion="1.1"
       mode="free"
       discard_orig_path="false"
       fuse_paths="false"
       oposite_fuse="false"
       split_items="false"
       split_open="false" />
    <inkscape:path-effect
       effect="mirror_symmetry"
       start_point="128,0"
       end_point="128,256"
       center_point="115.0243,73"
       id="path-effect2244"
       is_visible="true"
       lpeversion="1.1"
       mode="free"
       discard_orig_path="false"
       fuse_paths="false"
       oposite_fuse="false"
       split_items="false"
       split_open="false" />
    <inkscape:path-effect
       effect="mirror_symmetry"
       start_point="120,73"
       end_point="90,73"
       center_point="115.0243,52.503977"
       id="path-effect1974"
       is_visible="true"
       lpeversion="1.1"
       mode="free"
       discard_orig_path="false"
       fuse_paths="false"
       oposite_fuse="false"
       split_items="false"
       split_open="false" />
    <inkscape:path-effect
       effect="mirror_symmetry"
       start_point="73,28.646545"
       end_point="73,71.069736"
       center_point="70.703625,49.858141"
       id="path-effect1950"
       is_visible="true"
       lpeversion="1.1"
       mode="free"
       discard_orig_path="false"
       fuse_paths="false"
       oposite_fuse="false"
       split_items="false"
       split_open="false" />
    <inkscape:path-effect
       effect="mirror_symmetry"
       start_point="0,128"
       end_point="256,128"
       center_point="128,128"
       id="path-effect1246"
       is_visible="true"
       lpeversion="1.1"
       mode="free"
       discard_orig_path="false"
       fuse_paths="false"
       oposite_fuse="false"
       split_items="false"
       split_open="false" />
    <inkscape:path-effect
       effect="mirror_symmetry"
       start_point="128,-56.78204"
       end_point="128,199.21796"
       center_point="128,71.21796"
       id="path-effect1244"
       is_visible="true"
       lpeversion="1.1"
       mode="free"
       discard_orig_path="false"
       fuse_paths="false"
       oposite_fuse="false"
       split_items="false"
       split_open="false" />
  </defs>
  <g
     inkscape:label="Layer 1"
     inkscape:groupmode="layer"
     id="layer1">
    <path
       id="Main"
       style="fill:#181818;stroke-width:0.396875;stroke-linecap:round;stroke-linejoin:round;paint-order:markers stroke fill"
       d="m 33,8 h 190 c 13.85,0 25,11.15 25,25 v 190 c 0,13.85 -11.15,25 -25,25 H 33 C 19.15,248 8,236.85 8,223 V 33 C 8,19.15 19.15,8 33,8 Z" />
    <path
       id="Main-8"
       d="m 35.871778,23.051455 h 74.201182 c 7.29641,0 13.17041,5.874002 13.17041,13.170408 v 74.201317 c 0,7.29641 -5.874,13.17041 -13.17041,13.17041 H 35.871778 c -7.296406,0 -13.170408,-5.874 -13.170408,-13.17041 V 36.221863 c 0,-7.296406 5.874002,-13.170408 13.170408,-13.170408 z m 184.256442,0 h -74.20118 c -7.29641,0 -13.17041,5.874002 -13.17041,13.170408 v 74.201317 c 0,7.29641 5.874,13.17041 13.17041,13.17041 h 74.20118 c 7.29641,0 13.17041,-5.874 13.17041,-13.17041 V 36.221863 c 0,-7.296406 -5.874,-13.170408 -13.17041,-13.170408 z M 35.871778,232.94855 h 74.201182 c 7.29641,0 13.17041,-5.87401 13.17041,-13.17041 v -74.20132 c 0,-7.29641 -5.874,-13.17041 -13.17041,-13.17041 H 35.871778 c -7.296406,0 -13.170408,5.874 -13.170408,13.17041 v 74.20132 c 0,7.2964 5.874002,13.17041 13.170408,13.17041 z m 184.256442,0 h -74.20118 c -7.29641,0 -13.17041,-5.87401 -13.17041,-13.17041 v -74.20132 c 0,-7.29641 5.874,-13.17041 13.17041,-13.17041 h 74.20118 c 7.29641,0 13.17041,5.874 13.17041,13.17041 v 74.20132 c 0,7.2964 -5.874,13.17041 -13.17041,13.17041 z"
       style="fill:#696969;fill-opacity:1;stroke-width:0.396875;stroke-linecap:round;stroke-linejoin:round;paint-order:markers stroke fill" />
    <rect
       style="fill:#4e4e4e;fill-opacity:1;stroke-width:0.396875;stroke-linecap:round;stroke-linejoin:round;paint-order:markers stroke fill"
       id="rect1270"
       width="4.5315695"
       height="9.8601036"
       x="79.104164"
       y="80.78553"
       ry="2.2657847" />
  </g>
  <g
     inkscape:groupmode="layer"
     id="layer2"
     inkscape:label="Layer 2">
    <path
       id="rect1384"
       d="m 40.694717,31.292381 h 20.561974 c 5.384333,0 9.719013,4.33468 9.719013,9.719014 v 20.561973 c 0,5.384333 -4.33468,9.719013 -9.719013,9.719013 H 40.694717 c -5.384333,0 -9.719013,-4.33468 -9.719013,-9.719013 V 41.011395 c 0,-5.384334 4.33468,-9.719014 9.719013,-9.719014 z m 64.610563,0 H 84.743309 c -5.384333,0 -9.719013,4.33468 -9.719013,9.719014 v 20.561973 c 0,5.384333 4.33468,9.719013 9.719013,9.719013 h 20.561971 c 5.38434,0 9.71902,-4.33468 9.71902,-9.719013 V 41.011395 c 0,-5.384334 -4.33468,-9.719014 -9.71902,-9.719014 z M 40.694717,114.70762 h 20.561974 c 5.384333,0 9.719013,-4.33468 9.719013,-9.71901 V 84.426632 c 0,-5.384333 -4.33468,-9.719013 -9.719013,-9.719013 H 40.694717 c -5.384333,0 -9.719013,4.33468 -9.719013,9.719013 v 20.561978 c 0,5.38433 4.33468,9.71901 9.719013,9.71901 z m 64.610563,0 H 84.743309 c -5.384333,0 -9.719013,-4.33468 -9.719013,-9.71901 V 84.426632 c 0,-5.384333 4.33468,-9.719013 9.719013,-9.719013 h 20.561971 c 5.38434,0 9.71902,4.33468 9.71902,9.719013 v 20.561978 c 0,5.38433 -4.33468,9.71901 -9.71902,9.71901 z m 110,-83.415239 h -20.56197 c -5.38433,0 -9.71901,4.33468 -9.71901,9.719014 v 20.561973 c 0,5.384333 4.33468,9.719013 9.71901,9.719013 h 20.56197 c 5.38434,0 9.71902,-4.33468 9.71902,-9.719013 V 41.011395 c 0,-5.384334 -4.33468,-9.719014 -9.71902,-9.719014 z m -64.61056,0 h 20.56197 c 5.38433,0 9.71901,4.33468 9.71901,9.719014 v 20.561973 c 0,5.384333 -4.33468,9.719013 -9.71901,9.719013 h -20.56197 c -5.38434,0 -9.71902,-4.33468 -9.71902,-9.719013 V 41.011395 c 0,-5.384334 4.33468,-9.719014 9.71902,-9.719014 z m 64.61056,83.415239 h -20.56197 c -5.38433,0 -9.71901,-4.33468 -9.71901,-9.71901 V 84.426632 c 0,-5.384333 4.33468,-9.719013 9.71901,-9.719013 h 20.56197 c 5.38434,0 9.71902,4.33468 9.71902,9.719013 v 20.561978 c 0,5.38433 -4.33468,9.71901 -9.71902,9.71901 z m -64.61056,0 h 20.56197 c 5.38433,0 9.71901,-4.33468 9.71901,-9.71901 V 84.426632 c 0,-5.384333 -4.33468,-9.719013 -9.71901,-9.719013 h -20.56197 c -5.38434,0 -9.71902,4.33468 -9.71902,9.719013 v 20.561978 c 0,5.38433 4.33468,9.71901 9.71902,9.71901 z m -110.000003,110 h 20.561974 c 5.384333,0 9.719013,-4.33468 9.719013,-9.71902 v -20.56197 c 0,-5.38433 -4.33468,-9.71901 -9.719013,-9.71901 H 40.694717 c -5.384333,0 -9.719013,4.33468 -9.719013,9.71901 v 20.56197 c 0,5.38434 4.33468,9.71902 9.719013,9.71902 z m 64.610563,0 H 84.743309 c -5.384333,0 -9.719013,-4.33468 -9.719013,-9.71902 v -20.56197 c 0,-5.38433 4.33468,-9.71901 9.719013,-9.71901 h 20.561971 c 5.38434,0 9.71902,4.33468 9.71902,9.71901 v 20.56197 c 0,5.38434 -4.33468,9.71902 -9.71902,9.71902 z M 40.694717,141.29238 h 20.561974 c 5.384333,0 9.719013,4.33468 9.719013,9.71901 v 20.56198 c 0,5.38433 -4.33468,9.71901 -9.719013,9.71901 H 40.694717 c -5.384333,0 -9.719013,-4.33468 -9.719013,-9.71901 v -20.56198 c 0,-5.38433 4.33468,-9.71901 9.719013,-9.71901 z m 64.610563,0 H 84.743309 c -5.384333,0 -9.719013,4.33468 -9.719013,9.71901 v 20.56198 c 0,5.38433 4.33468,9.71901 9.719013,9.71901 h 20.561971 c 5.38434,0 9.71902,-4.33468 9.71902,-9.71901 v -20.56198 c 0,-5.38433 -4.33468,-9.71901 -9.71902,-9.71901 z m 110,83.41524 h -20.56197 c -5.38433,0 -9.71901,-4.33468 -9.71901,-9.71902 v -20.56197 c 0,-5.38433 4.33468,-9.71901 9.71901,-9.71901 h 20.56197 c 5.38434,0 9.71902,4.33468 9.71902,9.71901 v 20.56197 c 0,5.38434 -4.33468,9.71902 -9.71902,9.71902 z m -64.61056,0 h 20.56197 c 5.38433,0 9.71901,-4.33468 9.71901,-9.71902 v -20.56197 c 0,-5.38433 -4.33468,-9.71901 -9.71901,-9.71901 h -20.56197 c -5.38434,0 -9.71902,4.33468 -9.71902,9.71901 v 20.56197 c 0,5.38434 4.33468,9.71902 9.71902,9.71902 z m 64.61056,-83.41524 h -20.56197 c -5.38433,0 -9.71901,4.33468 -9.71901,9.71901 v 20.56198 c 0,5.38433 4.33468,9.71901 9.71901,9.71901 h 20.56197 c 5.38434,0 9.71902,-4.33468 9.71902,-9.71901 v -20.56198 c 0,-5.38433 -4.33468,-9.71901 -9.71902,-9.71901 z m -64.61056,0 h 20.56197 c 5.38433,0 9.71901,4.33468 9.71901,9.71901 v 20.56198 c 0,5.38433 -4.33468,9.71901 -9.71901,9.71901 h -20.56197 c -5.38434,0 -9.71902,-4.33468 -9.71902,-9.71901 v -20.56198 c 0,-5.38433 4.33468,-9.71901 9.71902,-9.71901 z"
       style="fill:#cccccc;fill-opacity:1;stroke-width:0.396875;stroke-linecap:round;stroke-linejoin:round;paint-order:markers stroke fill" />
  </g>
  <metadata
     id="metadata3037">
    <rdf:RDF>
      <cc:Work
         rdf:about="">
        <dc:title>Home Index Logo</dc:title>
        <cc:license
           rdf:resource="http://creativecommons.org/licenses/by-sa/4.0/" />
        <dc:creator>
          <cc:Agent>
            <dc:title>V0LT</dc:title>
          </cc:Agent>
        </dc:creator>
      </cc:Work>
      <cc:License
         rdf:about="http://creativecommons.org/licenses/by-sa/4.0/">
        <cc:permits
           rdf:resource="http://creativecommons.org/ns#Reproduction" />
        <cc:permits
           rdf:resource="http://creativecommons.org/ns#Distribution" />
        <cc:requires
           rdf:resource="http://creativecommons.org/ns#Notice" />
        <cc:requires
           rdf:resource="http://creativecommons.org/ns#Attribution" />
        <cc:permits
           rdf:resource="http://creativecommons.org/ns#DerivativeWorks" />
        <cc:requires
           rdf:resource="http://creativecommons.org/ns#ShareAlike" />
      </cc:License>
    </rdf:RDF>
  </metadata>
</svg>
